<?xml version="1.0" encoding="utf-8"?>
<svg width="24px" height="26px" viewBox="0 0 24 26" version="1.1" xmlns="http://www.w3.org/2000/svg">
  <title>arrow</title>
  <desc>Created with Sketch.</desc>
  <defs>
    <path d="M80.3333333,88.6666667 L83,88.6666667 L83,91.3333333 L80.3333333,91.3333333 L80.3333333,94 L77.6666667,94 L77.6666667,91.3333333 C71.4444444,91.3333333 65.2222222,91.3333333 59,91.3333333 L59,88.6666667 C65.2222222,88.6666667 71.4444444,88.6666667 77.6666667,88.6666667 L77.6666667,86 L80.3333333,86 L80.3333333,88.6666667 Z M75,83.3333333 L77.6666667,83.3333333 L77.6666667,86 L75,86 L75,83.3333333 Z M72.3333333,80.6666667 L75,80.6666667 L75,83.3333333 L72.3333333,83.3333333 L72.3333333,80.6666667 Z M69.6666667,78 L72.3333333,78 L72.3333333,80.6666667 L69.6666667,80.6666667 L69.6666667,78 Z M75,96.6666667 L75,94 L77.6666667,94 L77.6666667,96.6666667 L75,96.6666667 Z M72.3333333,99.3333333 L72.3333333,96.6666667 L75,96.6666667 L75,99.3333333 L72.3333333,99.3333333 Z M69.6666667,102 L69.6666667,99.3333333 L72.3333333,99.3333333 L72.3333333,102 L69.6666667,102 Z" id="path-1"/>
    <filter x="-4.2%" y="-4.2%" width="108.3%" height="116.7%" filterUnits="objectBoundingBox" id="filter-2">
      <feOffset dx="0" dy="2" in="SourceAlpha" result="shadowOffsetOuter1"/>
      <feColorMatrix in="shadowOffsetOuter1" result="color-matrix-0" type="matrix" values="1 0 0 0 0 0 1 0 0 0 0 0 0 0 0 0 0 0 0.3 0"/>
    </filter>
  </defs>
  <g id="Page-1" stroke="none" stroke-width="1" fill="none" fill-rule="evenodd">
    <g id="gifOS_captura_7_exito" transform="translate(-60.000000, -77.000000)" fill-rule="nonzero">
      <g id="nav-bar" transform="translate(1.000000, 1.000000)">
        <g id="arrow" transform="translate(71.000000, 90.000000) rotate(-180.000000) translate(-71.000000, -90.000000) ">
          <path d="M 80.333 88.667 L 83 88.667 L 83 91.333 L 80.333 91.333 L 80.333 94 L 77.667 94 L 77.667 91.333 C 71.444 91.333 65.222 91.333 59 91.333 L 59 88.667 C 65.222 88.667 71.444 88.667 77.667 88.667 L 77.667 86 L 80.333 86 L 80.333 88.667 Z M 75 83.333 L 77.667 83.333 L 77.667 86 L 75 86 L 75 83.333 Z M 72.333 80.667 L 75 80.667 L 75 83.333 L 72.333 83.333 L 72.333 80.667 Z M 69.667 78 L 72.333 78 L 72.333 80.667 L 69.667 80.667 L 69.667 78 Z M 75 96.667 L 75 94 L 77.667 94 L 77.667 96.667 L 75 96.667 Z M 72.333 99.333 L 72.333 96.667 L 75 96.667 L 75 99.333 L 72.333 99.333 Z M 69.667 102 L 69.667 99.333 L 72.333 99.333 L 72.333 102 L 69.667 102 Z" fill-opacity="1" filter="url(#filter-2)" style="paint-order: fill; fill: rgba(0, 0, 0, 0.31);"/>
          <path d="M 80.333 88.667 L 83 88.667 L 83 91.333 L 80.333 91.333 L 80.333 94 L 77.667 94 L 77.667 91.333 C 71.444 91.333 65.222 91.333 59 91.333 L 59 88.667 C 65.222 88.667 71.444 88.667 77.667 88.667 L 77.667 86 L 80.333 86 L 80.333 88.667 Z M 75 83.333 L 77.667 83.333 L 77.667 86 L 75 86 L 75 83.333 Z M 72.333 80.667 L 75 80.667 L 75 83.333 L 72.333 83.333 L 72.333 80.667 Z M 69.667 78 L 72.333 78 L 72.333 80.667 L 69.667 80.667 L 69.667 78 Z M 75 96.667 L 75 94 L 77.667 94 L 77.667 96.667 L 75 96.667 Z M 72.333 99.333 L 72.333 96.667 L 75 96.667 L 75 99.333 L 72.333 99.333 Z M 69.667 102 L 69.667 99.333 L 72.333 99.333 L 72.333 102 L 69.667 102 Z" style="paint-order: fill; fill: rgba(255, 255, 255, 0.89);"/>
        </g>
      </g>
    </g>
  </g>
</svg>